<svg width="33" height="42" viewBox="0 0 33 42" fill="none" xmlns="http://www.w3.org/2000/svg">
<path d="M26.404 27.5669V40.701C26.404 40.8701 26.3564 41.0362 26.2659 41.1823C26.1755 41.3284 26.0454 41.4493 25.8891 41.5326C25.7328 41.616 25.5558 41.6589 25.3761 41.6568C25.1964 41.6548 25.0206 41.6079 24.8664 41.521L16.2486 36.6549L7.63074 41.521C7.47647 41.608 7.30041 41.6548 7.12057 41.6568C6.94073 41.6588 6.76356 41.6158 6.60717 41.5322C6.45079 41.4486 6.3208 41.3274 6.2305 41.181C6.1402 41.0347 6.09282 40.8684 6.09322 40.6991V27.5688C3.46531 25.5889 1.55579 22.8898 0.628534 19.8446C-0.298719 16.7993 -0.197916 13.5582 0.917012 10.5691C2.03194 7.58008 4.10594 4.9907 6.8524 3.15882C9.59886 1.32694 12.8822 0.343018 16.2486 0.343018C19.615 0.343018 22.8983 1.32694 25.6448 3.15882C28.3912 4.9907 30.4652 7.58008 31.5802 10.5691C32.6951 13.5582 32.7959 16.7993 31.8686 19.8446C30.9414 22.8898 29.0319 25.5889 26.404 27.5688V27.5669ZM16.2486 27.0987C19.4806 27.0987 22.5803 25.8905 24.8657 23.7399C27.1511 21.5893 28.435 18.6725 28.435 15.6311C28.435 12.5898 27.1511 9.67295 24.8657 7.52237C22.5803 5.37179 19.4806 4.16361 16.2486 4.16361C13.0165 4.16361 9.91687 5.37179 7.63147 7.52237C5.34607 9.67295 4.06215 12.5898 4.06215 15.6311C4.06215 18.6725 5.34607 21.5893 7.63147 23.7399C9.91687 25.8905 13.0165 27.0987 16.2486 27.0987ZM16.2486 23.2761C14.0939 23.2761 12.0274 22.4707 10.5038 21.037C8.98024 19.6033 8.1243 17.6587 8.1243 15.6311C8.1243 13.6035 8.98024 11.659 10.5038 10.2253C12.0274 8.79157 14.0939 7.98612 16.2486 7.98612C18.4033 7.98612 20.4697 8.79157 21.9933 10.2253C23.5169 11.659 24.3729 13.6035 24.3729 15.6311C24.3729 17.6587 23.5169 19.6033 21.9933 21.037C20.4697 22.4707 18.4033 23.2761 16.2486 23.2761Z" fill="#F5F5F4"/>
</svg>
